<?xml version="1.0" encoding="UTF-8" standalone="no"?>
<svg
   viewBox="0 0 620 150"
   role="img"
   aria-labelledby="title desc"
   version="1.1"
   id="svg56"
   xmlns="http://www.w3.org/2000/svg"
   xmlns:svg="http://www.w3.org/2000/svg">
  <title
     id="title">FlipForge Card Intelligence</title>
  <desc
     id="desc">FlipForge primary horizontal logo with the Before you buy. Know Why. slogan.</desc>
  <style
     id="style4">@font-face{font-family:Geist;src:url('../fonts/geist-latin-wght-normal.woff2') format('woff2');font-weight:100 900}.word{font-family:Geist,Arial,sans-serif;font-weight:700}.support{font-family:Geist,Arial,sans-serif;font-weight:600}</style>
  <defs
     id="defs32">
    <linearGradient
       id="silver"
       x1="0"
       y1="0"
       x2="1"
       y2="1">
      <stop
         offset="0"
         stop-color="#FFFFFF"
         id="stop6" />
      <stop
         offset=".58"
         stop-color="#8B8F98"
         id="stop8" />
      <stop
         offset="1"
         stop-color="#FFFFFF"
         id="stop10" />
    </linearGradient>
    <linearGradient
       id="goldTop"
       x1="0"
       y1="0"
       x2="1"
       y2="1">
      <stop
         offset="0"
         stop-color="#FFFFFF"
         id="stop13" />
      <stop
         offset=".34"
         stop-color="#D4AF37"
         id="stop15" />
      <stop
         offset="1"
         stop-color="#B8860B"
         id="stop17" />
    </linearGradient>
    <linearGradient
       id="goldLeft"
       x1="0"
       y1="0"
       x2="1"
       y2="1">
      <stop
         offset="0"
         stop-color="#D4AF37"
         id="stop20" />
      <stop
         offset="1"
         stop-color="#B8860B"
         id="stop22" />
    </linearGradient>
    <linearGradient
       id="goldRight"
       x1="0"
       y1="0"
       x2="1"
       y2="1">
      <stop
         offset="0"
         stop-color="#D4AF37"
         id="stop25" />
      <stop
         offset=".62"
         stop-color="#B8860B"
         id="stop27" />
      <stop
         offset="1"
         stop-color="#8B8F98"
         id="stop29" />
    </linearGradient>
  </defs>
  <g
     transform="matrix(0.55,0,0,0.55,7,4)"
     id="g42">
    <path
       fill="url(#silver)"
       d="m 32,30 h 72 V 58 H 60 v 44 H 32 Z m 120,0 h 72 v 72 H 196 V 58 H 152 Z M 32,154 h 28 v 44 h 44 v 28 H 32 Z m 164,0 h 28 v 72 h -72 v -28 h 44 z"
       id="path34" />
    <path
       d="M 128,67 181,97 128,128 75,97 Z"
       fill="url(#goldTop)"
       stroke="#000000"
       stroke-width="4"
       id="path36" />
    <path
       d="m 75,97 53,31 v 60 L 75,157 Z"
       fill="url(#goldLeft)"
       stroke="#000000"
       stroke-width="4"
       id="path38" />
    <path
       d="m 181,97 -53,31 v 60 l 53,-31 z"
       fill="url(#goldRight)"
       stroke="#000000"
       stroke-width="4"
       id="path40" />
  </g>
  <g
     aria-label="FLIPFORGE™"
     id="text48"
     class="word"
     style="font-weight:700;font-size:45px;font-family:Geist, Arial, sans-serif;letter-spacing:7;fill:#ffffff">
    <path
       d="m 164.13086,27.194824 h 22.82959 v 6.394043 h -14.37012 v 6.108399 h 13.51319 v 6.394043 H 172.59033 V 60 h -8.45947 z"
       id="path60" />
    <path
       d="m 201.87061,27.194824 h 8.45947 v 26.411133 h 14.85351 V 60 h -23.31298 z"
       id="path62" />
    <path
       d="m 237.54492,27.194824 h 8.45947 V 60 h -8.45947 z"
       id="path64" />
    <path
       d="m 261.28809,27.194824 h 14.04052 q 6.26221,0 9.60205,2.790528 3.36182,2.768554 3.36182,7.910156 0,5.163574 -3.36182,7.954101 -3.33984,2.768555 -9.60205,2.768555 h -5.58105 V 60 h -8.45947 z m 8.45947,6.130371 v 9.162598 h 4.68017 q 2.46094,0 3.80127,-1.186523 1.34034,-1.208497 1.34034,-3.405762 0,-2.197266 -1.34034,-3.383789 -1.34033,-1.186524 -3.80127,-1.186524 z"
       id="path66" />
    <path
       d="m 301.26904,27.194824 h 22.82959 v 6.394043 h -14.37011 v 6.108399 h 13.51318 v 6.394043 H 309.72852 V 60 h -8.45948 z"
       style="fill:#d4af37"
       id="path68" />
    <path
       d="m 353.99414,32.731934 q -3.86719,0 -5.99853,2.856445 -2.13135,2.856445 -2.13135,8.041992 0,5.163574 2.13135,8.02002 2.13134,2.856445 5.99853,2.856445 3.88916,0 6.02051,-2.856445 2.13135,-2.856446 2.13135,-8.02002 0,-5.185547 -2.13135,-8.041992 -2.13135,-2.856445 -6.02051,-2.856445 z m 0,-6.130372 q 7.91016,0 12.39258,4.526368 4.48242,4.526367 4.48242,12.502441 0,7.954102 -4.48242,12.480469 -4.48242,4.526367 -12.39258,4.526367 -7.88818,0 -12.39258,-4.526367 -4.48242,-4.526367 -4.48242,-12.480469 0,-7.976074 4.48242,-12.502441 4.5044,-4.526368 12.39258,-4.526368 z"
       style="fill:#d4af37"
       id="path70" />
    <path
       d="m 396.28223,41.740723 q 2.65869,0 3.80127,-0.98877 1.16455,-0.988769 1.16455,-3.251953 0,-2.241211 -1.16455,-3.208008 -1.14258,-0.966797 -3.80127,-0.966797 h -3.55957 v 8.415528 z m -3.55957,5.844726 V 60 h -8.45948 V 27.194824 h 12.91993 q 6.48193,0 9.49218,2.175293 3.03223,2.175293 3.03223,6.877442 0,3.251953 -1.58203,5.339355 -1.56006,2.087402 -4.72412,3.076172 1.73584,0.395508 3.09814,1.801758 1.38428,1.384277 2.79053,4.21875 L 413.88232,60 h -9.00878 l -3.99903,-8.151855 q -1.20849,-2.460938 -2.46094,-3.361817 -1.23046,-0.900879 -3.29589,-0.900879 z"
       style="fill:#d4af37"
       id="path72" />
    <path
       d="m 455.40137,57.561035 q -3.16407,1.538086 -6.56983,2.307129 -3.40576,0.769043 -7.03125,0.769043 -8.1958,0 -12.98584,-4.570312 -4.79004,-4.592286 -4.79004,-12.436524 0,-7.932129 4.87793,-12.480469 4.87793,-4.54834 13.35938,-4.54834 3.27392,0 6.26221,0.615235 3.01025,0.615234 5.66894,1.82373 v 6.789551 q -2.74658,-1.560058 -5.47119,-2.329101 -2.70264,-0.769043 -5.42725,-0.769043 -5.05371,0 -7.80029,2.834472 -2.72461,2.8125 -2.72461,8.063965 0,5.20752 2.63672,8.041992 2.63672,2.834473 7.49268,2.834473 1.31836,0 2.43896,-0.153809 1.14258,-0.175781 2.04346,-0.527343 v -6.372071 h -5.16358 v -5.668945 h 13.1836 z"
       style="fill:#d4af37"
       id="path74" />
    <path
       d="m 469.8501,27.194824 h 22.82959 v 6.394043 h -14.37012 v 6.108399 h 13.51318 v 6.394043 h -13.51318 v 7.514648 h 14.85352 V 60 H 469.8501 Z"
       style="fill:#d4af37"
       id="path76" />
    <path
       d="m 509.65186,33.980957 0.63916,1.219238 0.63916,-1.219238 h 1.21923 v 3.104492 h -0.91308 v -2.347168 l -0.73584,1.375 h -0.4082 l -0.73584,-1.375 v 2.347168 h -0.92383 v -3.104492 z m -1.82618,0 v 0.768066 h -0.93457 v 2.336426 h -0.92382 v -2.336426 h -0.92383 v -0.768066 z"
       style="font-size:11px;letter-spacing:0;baseline-shift:super;fill:#d4af37"
       id="path78" />
  </g>
  <path
     d="M162 84h46M512 84h62"
     stroke="#D4AF37"
     stroke-width="2"
     id="path50" />
  <g
     aria-label="CARD INTELLIGENCE"
     id="text52"
     class="support"
     style="font-weight:600;font-size:15px;font-family:Geist, Arial, sans-serif;letter-spacing:4.2;fill:#d4af37">
    <path
       d="m 235.04883,89.399414 q -0.77637,0.402832 -1.61865,0.60791 -0.84229,0.205078 -1.75782,0.205078 -2.73193,0 -4.32861,-1.523437 -1.59668,-1.530762 -1.59668,-4.145508 0,-2.62207 1.59668,-4.145508 1.59668,-1.530762 4.32861,-1.530762 0.91553,0 1.75782,0.205079 0.84228,0.205078 1.61865,0.60791 v 2.263183 q -0.78369,-0.534668 -1.54541,-0.783691 -0.76172,-0.249023 -1.60401,-0.249023 -1.50879,0 -2.37304,0.966796 -0.86426,0.966797 -0.86426,2.666016 0,1.691895 0.86426,2.658691 0.86425,0.966797 2.37304,0.966797 0.84229,0 1.60401,-0.249023 0.76172,-0.249024 1.54541,-0.783692 z"
       id="path81" />
    <path
       d="m 248.221,88.007812 h -4.40918 L 243.11602,90 h -2.83448 l 4.0503,-10.935059 h 3.36181 L 251.74395,90 h -2.83448 z m -3.70606,-2.028808 h 2.99561 l -1.49414,-4.350586 z"
       id="path83" />
    <path
       d="m 261.40049,83.913574 q 0.88623,0 1.26709,-0.32959 0.38818,-0.329589 0.38818,-1.083984 0,-0.74707 -0.38818,-1.069336 -0.38086,-0.322266 -1.26709,-0.322266 h -1.18653 v 2.805176 z m -1.18653,1.948242 V 90 h -2.81982 V 79.064941 h 4.30664 q 2.16065,0 3.16406,0.725098 1.01075,0.725098 1.01075,2.292481 0,1.083984 -0.52735,1.779785 -0.52002,0.6958 -1.57471,1.02539 0.57862,0.131836 1.03272,0.600586 0.46143,0.461426 0.93018,1.40625 L 267.26719,90 h -3.00293 l -1.33301,-2.717285 q -0.40283,-0.820313 -0.82031,-1.120606 -0.41016,-0.300293 -1.09864,-0.300293 z"
       id="path85" />
    <path
       d="m 275.96426,81.196289 v 6.672363 h 1.01074 q 1.72851,0 2.63672,-0.856933 0.91552,-0.856934 0.91552,-2.490235 0,-1.625976 -0.9082,-2.475586 -0.9082,-0.849609 -2.64404,-0.849609 z m -2.81983,-2.131348 h 2.97363 q 2.49024,0 3.70606,0.358887 1.22314,0.351563 2.09473,1.201172 0.76904,0.739746 1.14257,1.706543 0.37354,0.966797 0.37354,2.189941 0,1.237793 -0.37354,2.211914 -0.37353,0.966797 -1.14257,1.706543 -0.87891,0.84961 -2.10938,1.208496 Q 278.579,90 276.11806,90 h -2.97363 z"
       id="path87" />
    <path
       d="m 299.21777,79.064941 h 2.81983 V 90 h -2.81983 z"
       id="path89" />
    <path
       d="m 308.99883,79.064941 h 3.14941 l 3.97705,7.5 v -7.5 h 2.67334 V 90 h -3.14941 l -3.97706,-7.5 V 90 h -2.67333 z"
       id="path91" />
    <path
       d="m 324.44883,79.064941 h 10.07812 v 2.131348 h -3.62548 V 90 h -2.81983 v -8.803711 h -3.63281 z"
       id="path93" />
    <path
       d="m 340.18447,79.064941 h 7.60986 v 2.131348 h -4.79003 v 2.036133 h 4.50439 v 2.131348 h -4.50439 v 2.504882 h 4.95117 V 90 h -7.771 z"
       id="path95" />
    <path
       d="m 354.63106,79.064941 h 2.81982 v 8.803711 h 4.95117 V 90 h -7.77099 z"
       id="path97" />
    <path
       d="m 368.38916,79.064941 h 2.81982 v 8.803711 h 4.95118 V 90 h -7.771 z"
       id="path99" />
    <path
       d="m 382.14726,79.064941 h 2.81983 V 90 h -2.81983 z"
       id="path101" />
    <path
       d="m 401.75742,89.187012 q -1.05469,0.512695 -2.18995,0.769043 -1.13525,0.256347 -2.34375,0.256347 -2.73193,0 -4.32861,-1.523437 -1.59668,-1.530762 -1.59668,-4.145508 0,-2.644043 1.62598,-4.160156 1.62597,-1.516114 4.45312,-1.516114 1.09131,0 2.08741,0.205079 1.00341,0.205078 1.88964,0.60791 v 2.263183 q -0.91552,-0.520019 -1.82373,-0.776367 -0.90088,-0.256347 -1.80908,-0.256347 -1.68457,0 -2.6001,0.944824 -0.9082,0.9375 -0.9082,2.687988 0,1.73584 0.87891,2.680664 0.8789,0.944824 2.49756,0.944824 0.43945,0 0.81298,-0.05127 0.38086,-0.05859 0.68116,-0.175781 v -2.124024 h -1.7212 v -1.889648 h 4.39454 z"
       id="path103" />
    <path
       d="m 408.44032,79.064941 h 7.60987 v 2.131348 h -4.79004 v 2.036133 h 4.50439 v 2.131348 h -4.50439 v 2.504882 h 4.95117 V 90 h -7.771 z"
       id="path105" />
    <path
       d="m 422.88692,79.064941 h 3.14941 l 3.97705,7.5 v -7.5 h 2.67334 V 90 h -3.14941 l -3.97705,-7.5 V 90 h -2.67334 z"
       id="path107" />
    <path
       d="m 448.3125,89.399414 q -0.77637,0.402832 -1.61865,0.60791 -0.84229,0.205078 -1.75781,0.205078 -2.73194,0 -4.32862,-1.523437 -1.59668,-1.530762 -1.59668,-4.145508 0,-2.62207 1.59668,-4.145508 1.59668,-1.530762 4.32862,-1.530762 0.91552,0 1.75781,0.205079 0.84228,0.205078 1.61865,0.60791 v 2.263183 q -0.78369,-0.534668 -1.54541,-0.783691 -0.76172,-0.249023 -1.604,-0.249023 -1.50879,0 -2.37305,0.966796 -0.86426,0.966797 -0.86426,2.666016 0,1.691895 0.86426,2.658691 0.86426,0.966797 2.37305,0.966797 0.84228,0 1.604,-0.249023 0.76172,-0.249024 1.54541,-0.783692 z"
       id="path109" />
    <path
       d="m 454.84892,79.064941 h 7.60987 v 2.131348 h -4.79004 v 2.036133 h 4.50439 v 2.131348 h -4.50439 v 2.504882 h 4.95117 V 90 h -7.771 z"
       id="path111" />
  </g>
  <g
     aria-label="Before you buy. Know Why."
     id="text54"
     class="support"
     style="font-weight:600;font-size:13px;font-family:Geist, Arial, sans-serif;letter-spacing:1.7;fill:#8b8f98">
    <path
       d="m 229.98926,114.19189 q 0.57763,0 0.87597,-0.2539 0.29834,-0.25391 0.29834,-0.74903 0,-0.48876 -0.29834,-0.74267 -0.29834,-0.26025 -0.87597,-0.26025 h -1.35205 v 2.00585 z m 0.0825,4.14502 q 0.73633,0 1.10449,-0.31103 0.37451,-0.31104 0.37451,-0.93945 0,-0.61573 -0.36816,-0.92041 -0.36817,-0.31104 -1.11084,-0.31104 h -1.43457 v 2.48193 z m 2.27246,-3.40869 q 0.78711,0.22852 1.21875,0.84424 0.43164,0.61572 0.43164,1.51074 0,1.3711 -0.92676,2.04395 Q 232.14111,120 230.24951,120 h -4.05615 v -9.47705 h 3.66894 q 1.97413,0 2.85645,0.59668 0.88867,0.59668 0.88867,1.91064 0,0.6919 -0.32373,1.18067 -0.32373,0.48242 -0.93945,0.71728 z"
       id="path114" />
    <path
       d="m 244.79717,116.42627 v 0.64746 h -5.31299 q 0.0825,0.79981 0.57764,1.19971 0.49511,0.3999 1.38379,0.3999 0.71728,0 1.4663,-0.20947 0.75537,-0.21582 1.54883,-0.64746 v 1.75195 q -0.80615,0.30469 -1.6123,0.45703 -0.80616,0.15869 -1.61231,0.15869 -1.92968,0 -3.00244,-0.97754 -1.06641,-0.98388 -1.06641,-2.75488 0,-1.73926 1.04737,-2.73584 1.05371,-0.99658 2.89453,-0.99658 1.67578,0 2.67871,1.00928 1.00928,1.00927 1.00928,2.69775 z m -2.33594,-0.75537 q 0,-0.64746 -0.38086,-1.04102 -0.37451,-0.3999 -0.98389,-0.3999 -0.66015,0 -1.07275,0.37451 -0.4126,0.36817 -0.51416,1.06641 z"
       id="path116" />
    <path
       d="m 252.89561,110.12305 v 1.4917 h -1.25684 q -0.48242,0 -0.67285,0.17773 -0.19043,0.17139 -0.19043,0.60303 v 0.49512 h 1.94238 v 1.625 h -1.94238 V 120 h -2.27246 v -5.48437 h -1.12989 v -1.625 h 1.12989 v -0.49512 q 0,-1.16162 0.64746,-1.71387 0.64746,-0.55859 2.00586,-0.55859 z"
       id="path118" />
    <path
       d="m 258.95645,114.34424 q -0.75538,0 -1.15528,0.5459 -0.39355,0.53955 -0.39355,1.56152 0,1.02197 0.39355,1.56787 0.3999,0.53955 1.15528,0.53955 0.74267,0 1.13623,-0.53955 0.39355,-0.5459 0.39355,-1.56787 0,-1.02197 -0.39355,-1.56152 -0.39356,-0.5459 -1.13623,-0.5459 z m 0,-1.625 q 1.83447,0 2.86279,0.99023 1.03467,0.99024 1.03467,2.74219 0,1.75195 -1.03467,2.74219 -1.02832,0.99023 -2.86279,0.99023 -1.84082,0 -2.88184,-0.99023 -1.03467,-0.99024 -1.03467,-2.74219 0,-1.75195 1.03467,-2.74219 1.04102,-0.99023 2.88184,-0.99023 z"
       id="path120" />
    <path
       d="m 271.48555,114.82666 q -0.29834,-0.13965 -0.59668,-0.20312 -0.292,-0.0698 -0.59034,-0.0698 -0.87597,0 -1.35205,0.56494 -0.46972,0.5586 -0.46972,1.60596 V 120 h -2.27246 v -7.10937 h 2.27246 v 1.16796 q 0.43799,-0.69824 1.00293,-1.01562 0.57129,-0.32373 1.36474,-0.32373 0.11426,0 0.24756,0.0127 0.1333,0.006 0.38721,0.0381 z"
       id="path122" />
    <path
       d="m 281.41211,116.42627 v 0.64746 h -5.31299 q 0.0825,0.79981 0.57764,1.19971 0.49511,0.3999 1.38379,0.3999 0.71728,0 1.46631,-0.20947 0.75537,-0.21582 1.54882,-0.64746 v 1.75195 q -0.80615,0.30469 -1.6123,0.45703 -0.80615,0.15869 -1.61231,0.15869 -1.92968,0 -3.00244,-0.97754 -1.0664,-0.98388 -1.0664,-2.75488 0,-1.73926 1.04736,-2.73584 1.05371,-0.99658 2.89453,-0.99658 1.67578,0 2.67871,1.00928 1.00928,1.00927 1.00928,2.69775 z m -2.33594,-0.75537 q 0,-0.64746 -0.38086,-1.04102 -0.37451,-0.3999 -0.98388,-0.3999 -0.66016,0 -1.07276,0.37451 -0.4126,0.36817 -0.51416,1.06641 z"
       id="path124" />
    <path
       d="m 290.1251,112.89063 h 2.27246 l 1.91064,4.82421 1.625,-4.82421 h 2.27247 l -2.98975,7.78222 q -0.45068,1.18701 -1.05371,1.65674 -0.59668,0.47607 -1.58057,0.47607 h -1.31396 v -1.4917 h 0.71093 q 0.57764,0 0.8379,-0.18408 0.2666,-0.18408 0.41259,-0.66015 l 0.0635,-0.19678 z"
       id="path126" />
    <path
       d="m 304.61562,114.34424 q -0.75537,0 -1.15527,0.5459 -0.39355,0.53955 -0.39355,1.56152 0,1.02197 0.39355,1.56787 0.3999,0.53955 1.15527,0.53955 0.74268,0 1.13623,-0.53955 0.39356,-0.5459 0.39356,-1.56787 0,-1.02197 -0.39356,-1.56152 -0.39355,-0.5459 -1.13623,-0.5459 z m 0,-1.625 q 1.83448,0 2.8628,0.99023 1.03466,0.99024 1.03466,2.74219 0,1.75195 -1.03466,2.74219 -1.02832,0.99023 -2.8628,0.99023 -1.84082,0 -2.88183,-0.99023 -1.03467,-0.99024 -1.03467,-2.74219 0,-1.75195 1.03467,-2.74219 1.04101,-0.99023 2.88183,-0.99023 z"
       id="path128" />
    <path
       d="m 311.78731,117.23242 v -4.34179 h 2.28515 v 0.71093 q 0,0.57764 -0.006,1.45362 -0.006,0.86962 -0.006,1.16162 0,0.85693 0.0444,1.23779 0.0444,0.37451 0.15235,0.5459 0.13964,0.22217 0.36181,0.34277 0.22852,0.12061 0.52051,0.12061 0.71094,0 1.11719,-0.5459 0.40625,-0.5459 0.40625,-1.51709 v -3.51025 h 2.27246 V 120 h -2.27246 v -1.02832 q -0.51416,0.62207 -1.0918,0.92041 -0.57129,0.29199 -1.26318,0.29199 -1.23145,0 -1.87891,-0.75537 -0.64111,-0.75537 -0.64111,-2.19629 z"
       id="path130" />
    <path
       d="m 332.82744,118.53369 q 0.72998,0 1.11084,-0.5332 0.38721,-0.5332 0.38721,-1.54883 0,-1.01562 -0.38721,-1.54883 -0.38086,-0.5332 -1.11084,-0.5332 -0.72998,0 -1.12354,0.53955 -0.3872,0.5332 -0.3872,1.54248 0,1.00928 0.3872,1.54883 0.39356,0.5332 1.12354,0.5332 z m -1.51074,-4.60205 q 0.46972,-0.62207 1.04101,-0.91406 0.57129,-0.29834 1.31397,-0.29834 1.31396,0 2.1582,1.04736 0.84424,1.04102 0.84424,2.68506 0,1.64404 -0.84424,2.69141 -0.84424,1.04101 -2.1582,1.04101 -0.74268,0 -1.31397,-0.29199 -0.57129,-0.29834 -1.04101,-0.92041 V 120 h -2.27246 v -9.87695 h 2.27246 z"
       id="path132" />
    <path
       d="m 339.97373,117.23242 v -4.34179 h 2.28516 v 0.71093 q 0,0.57764 -0.006,1.45362 -0.006,0.86962 -0.006,1.16162 0,0.85693 0.0444,1.23779 0.0444,0.37451 0.15234,0.5459 0.13965,0.22217 0.36182,0.34277 0.22851,0.12061 0.5205,0.12061 0.71094,0 1.11719,-0.5459 0.40625,-0.5459 0.40625,-1.51709 v -3.51025 h 2.27246 V 120 h -2.27246 v -1.02832 q -0.51416,0.62207 -1.09179,0.92041 -0.57129,0.29199 -1.26319,0.29199 -1.23144,0 -1.8789,-0.75537 -0.64112,-0.75537 -0.64112,-2.19629 z"
       id="path134" />
    <path
       d="m 350.07168,112.89063 h 2.27246 l 1.91064,4.82421 1.625,-4.82421 h 2.27246 l -2.98974,7.78222 q -0.45069,1.18701 -1.05371,1.65674 -0.59668,0.47607 -1.58057,0.47607 h -1.31396 v -1.4917 h 0.71093 q 0.57764,0 0.83789,-0.18408 0.26661,-0.18408 0.4126,-0.66015 l 0.0635,-0.19678 z"
       id="path136" />
    <path
       d="m 360.22041,117.54346 h 2.28516 V 120 h -2.28516 z"
       id="path138" />
    <path
       d="m 372.95146,110.52295 h 2.44385 v 3.45947 l 3.52295,-3.45947 h 2.8374 l -4.56396,4.48779 5.03369,4.98926 h -3.05957 l -3.77051,-3.73242 V 120 h -2.44385 z"
       id="path140" />
    <path
       d="M 391.77109,115.6709 V 120 h -2.28516 v -0.70459 -2.60889 q 0,-0.92041 -0.0444,-1.26953 -0.0381,-0.34912 -0.13965,-0.51416 -0.1333,-0.22217 -0.36182,-0.34277 -0.22851,-0.12695 -0.5205,-0.12695 -0.71094,0 -1.11719,0.55224 -0.40625,0.5459 -0.40625,1.51709 V 120 h -2.27246 v -7.10937 h 2.27246 v 1.04101 q 0.51416,-0.62207 1.09179,-0.91406 0.57764,-0.29834 1.27588,-0.29834 1.23145,0 1.86621,0.75537 0.64112,0.75537 0.64112,2.19629 z"
       id="path142" />
    <path
       d="m 398.96182,114.34424 q -0.75537,0 -1.15527,0.5459 -0.39356,0.53955 -0.39356,1.56152 0,1.02197 0.39356,1.56787 0.3999,0.53955 1.15527,0.53955 0.74268,0 1.13623,-0.53955 0.39356,-0.5459 0.39356,-1.56787 0,-1.02197 -0.39356,-1.56152 -0.39355,-0.5459 -1.13623,-0.5459 z m 0,-1.625 q 1.83448,0 2.8628,0.99023 1.03466,0.99024 1.03466,2.74219 0,1.75195 -1.03466,2.74219 -1.02832,0.99023 -2.8628,0.99023 -1.84082,0 -2.88183,-0.99023 -1.03467,-0.99024 -1.03467,-2.74219 0,-1.75195 1.03467,-2.74219 1.04101,-0.99023 2.88183,-0.99023 z"
       id="path144" />
    <path
       d="m 405.57491,112.89063 h 2.20898 l 1.19336,4.90039 1.19971,-4.90039 h 1.89795 l 1.19335,4.8496 1.19971,-4.8496 h 2.20899 L 414.8044,120 h -2.48194 l -1.1997,-4.8877 L 409.9294,120 h -2.48194 z"
       id="path146" />
    <path
       d="m 425.44072,110.52295 h 2.34228 l 1.6377,6.88721 1.625,-6.88721 h 2.35498 l 1.625,6.88721 1.6377,-6.88721 h 2.32324 L 436.75224,120 h -2.81836 L 432.21367,112.79541 430.5125,120 h -2.81836 z"
       id="path148" />
    <path
       d="M 449.33212,115.6709 V 120 h -2.28515 v -0.70459 -2.59619 q 0,-0.93311 -0.0444,-1.28223 -0.0381,-0.34912 -0.13965,-0.51416 -0.1333,-0.22217 -0.36181,-0.34277 -0.22852,-0.12695 -0.52051,-0.12695 -0.71094,0 -1.11719,0.55224 -0.40625,0.5459 -0.40625,1.51709 V 120 h -2.27246 v -9.87695 h 2.27246 v 3.80859 q 0.51416,-0.62207 1.0918,-0.91406 0.57764,-0.29834 1.27588,-0.29834 1.23144,0 1.86621,0.75537 0.64111,0.75537 0.64111,2.19629 z"
       id="path150" />
    <path
       d="m 452.20645,112.89063 h 2.27246 l 1.91065,4.82421 1.625,-4.82421 h 2.27246 l -2.98975,7.78222 q -0.45068,1.18701 -1.05371,1.65674 -0.59668,0.47607 -1.58057,0.47607 h -1.31396 v -1.4917 h 0.71094 q 0.57763,0 0.83789,-0.18408 0.2666,-0.18408 0.4126,-0.66015 l 0.0635,-0.19678 z"
       id="path152" />
    <path
       d="m 462.35518,117.54346 h 2.28516 V 120 h -2.28516 z"
       id="path154" />
  </g>
</svg>
